<svg xmlns="http://www.w3.org/2000/svg" width="206" height="32" fill="none" viewBox="0 0 206 32"><g fill="#fff" clip-path="url(#a)"><path d="M51.658 13.502a8.47 8.47 0 0 1 3.338-3.297c1.428-.787 3.05-1.18 4.856-1.18 2.218 0 4.113.574 5.694 1.715s2.629 2.7 3.161 4.674h-5a4 4 0 0 0-1.58-1.739c-.687-.401-1.46-.598-2.332-.598-1.403 0-2.532.472-3.403 1.424s-1.307 2.227-1.307 3.816q0 2.387 1.307 3.817c.87.952 2 1.424 3.403 1.424.871 0 1.645-.197 2.331-.598s1.21-.976 1.58-1.739h5.001c-.532 1.975-1.589 3.525-3.161 4.658-1.581 1.133-3.476 1.7-5.694 1.7q-2.712 0-4.855-1.18a8.5 8.5 0 0 1-3.34-3.282q-1.195-2.098-1.193-4.8c.002-2.702.395-3.406 1.194-4.815m22.147 13.251a6.8 6.8 0 0 1-2.742-2.597c-.662-1.125-1-2.44-1-3.942s.338-2.801 1.008-3.934a6.8 6.8 0 0 1 2.766-2.605c1.17-.606 2.484-.905 3.936-.905q2.18-.001 3.936.905a6.8 6.8 0 0 1 2.766 2.605c.677 1.133 1.008 2.447 1.008 3.934q.002 2.232-1.024 3.934a6.87 6.87 0 0 1-2.79 2.605q-1.765.906-3.953.904c-1.46 0-2.758-.299-3.92-.904zm6.145-3.864q.92-.93.92-2.675c0-1.745-.299-2.046-.887-2.675a2.92 2.92 0 0 0-2.194-.937c-.871 0-1.621.307-2.21.92-.589.615-.879 1.512-.879 2.684s.29 2.054.863 2.675c.573.622 1.298.937 2.17.937.87 0 1.612-.315 2.217-.937zm7.388-6.625c.572-1.125 1.363-1.99 2.355-2.597q1.486-.906 3.322-.905 1.462-.002 2.67.598c.806.402 1.444.937 1.903 1.606v-6.72h4.549v19.199h-4.549v-2.077q-.639 1.036-1.822 1.66c-.79.417-1.71.622-2.75.622-1.227 0-2.331-.307-3.323-.921q-1.487-.92-2.355-2.62c-.573-1.133-.863-2.44-.863-3.935 0-1.494.29-2.793.863-3.918zm9.307 1.322a3.1 3.1 0 0 0-2.299-.96q-1.355 0-2.298.944c-.63.63-.944 1.503-.944 2.604q0 1.655.944 2.636c.629.646 1.395.976 2.298.976s1.67-.323 2.299-.96q.943-.955.943-2.62t-.943-2.62m22.171 3.69h-10.291c.072.897.371 1.59.887 2.062.524.472 1.169.716 1.928.716q1.705.001 2.371-1.401h4.839a6.3 6.3 0 0 1-1.347 2.565c-.645.763-1.46 1.361-2.436 1.794s-2.064.645-3.274.645c-1.452 0-2.75-.299-3.88-.904a6.53 6.53 0 0 1-2.661-2.597c-.637-1.125-.96-2.44-.96-3.942q0-2.254.944-3.942a6.44 6.44 0 0 1 2.645-2.597c1.137-.606 2.436-.905 3.912-.905s2.71.291 3.831.882a6.44 6.44 0 0 1 2.621 2.517q.944 1.631.944 3.817.001.626-.081 1.298zm-4.573-2.463q0-1.145-.798-1.817c-.533-.449-1.194-.677-1.993-.677-.798 0-1.403.212-1.927.645q-.786.65-.968 1.841h5.694zm16.299 8.64-3.879-6.877h-1.089v6.877h-4.549V9.237h7.63c1.476 0 2.726.252 3.766.756 1.041.503 1.815 1.188 2.331 2.061q.774 1.313.775 2.92c0 1.211-.347 2.29-1.049 3.241s-1.734 1.629-3.097 2.022l4.307 7.216zm-4.976-10.017h2.823c.831 0 1.46-.197 1.871-.598q.629-.6.629-1.684c0-.723-.21-1.235-.629-1.636-.419-.402-1.04-.598-1.871-.598h-2.823zm12.228-1.172c.572-1.125 1.363-1.99 2.355-2.597.992-.606 2.105-.818 3.323-.818h9.121v14.596h-4.549v-2.046c-.443.677-1.056 1.22-1.846 1.637-.791.417-1.71.621-2.751.621q-1.812 0-3.298-.92-1.487-.92-2.355-2.62c-.573-1.134-.863-2.44-.863-3.935s.29-2.793.863-3.918m9.307 1.322a3.1 3.1 0 0 0-2.299-.96q-1.355 0-2.298.944c-.629.63-.944 1.503-.944 2.604q0 1.655.944 2.636c.629.646 1.395.976 2.298.976.904 0 1.67-.323 2.299-.96q.943-.955.943-2.62t-.943-2.62m14.646-4.202q1.196-.624 2.742-.622 1.837-.001 3.323.905c.992.606 1.774 1.472 2.355 2.597q.861 1.688.863 3.918-.002 2.234-.863 3.935c-.573 1.133-1.363 2.006-2.355 2.62q-1.486.92-3.323.92-1.57-.002-2.742-.605c-.782-.41-1.395-.945-1.839-1.621v2.022h-4.549V8.246h4.549v6.775q.642-1.013 1.839-1.637m3.71 4.194c-.629-.63-1.403-.944-2.331-.944s-1.669.322-2.298.96q-.944.955-.944 2.62t.944 2.62a3.1 3.1 0 0 0 2.298.96c.903 0 1.678-.323 2.315-.976.637-.645.96-1.526.96-2.636s-.315-1.975-.944-2.604m13.815-4.194c.799-.417 1.71-.622 2.743-.622q1.836-.001 3.322.905 1.487.91 2.355 2.597.861 1.688.863 3.918-.002 2.234-.863 3.935c-.572 1.133-1.363 2.006-2.355 2.62q-1.486.92-3.322.92c-1.049 0-1.96-.204-2.743-.605-.782-.41-1.395-.945-1.838-1.621v2.022h-4.549V8.246h4.549v6.775q.64-1.013 1.838-1.637m3.71 4.194c-.629-.63-1.403-.944-2.33-.944-.928 0-1.67.322-2.299.96q-.944.955-.944 2.62t.944 2.62c.629.637 1.395.96 2.299.96q1.356.002 2.314-.976c.637-.645.96-1.526.96-2.636s-.315-1.975-.944-2.604m7.767-6.798a2.19 2.19 0 0 1-.758-1.7c0-.677.25-1.267.758-1.723s1.154-.685 1.952-.685c.799 0 1.42.228 1.928.685q.76.684.758 1.723c0 .692-.25 1.243-.758 1.7s-1.146.684-1.928.684-1.452-.228-1.952-.684m4.218 2.195v14.478h-4.548V12.967h4.548zM206 23.684v3.76h-2.315c-1.645 0-2.935-.392-3.855-1.18q-1.379-1.177-1.379-3.855v-5.76h-1.806v-3.682h1.806V9.442H203v3.525h2.976v3.682H203v5.815c0 .433.105.748.322.937q.315.282 1.065.283h1.621zM23.792 31.615c-1.758-.566-3.46-4.437-5.573-4.437 2.96 1.738 1.701 4.044 1.46 4.437h4.12z"/><path d="M36.6 17.586C36.229 8.38 28.599.873 19.17.448 8.663-.016 0 8.151 0 18.294c0 3.871 1.258 7.451 3.403 10.37a7.26 7.26 0 0 0 5.25 2.92c-3.072-3.4-.459-6.24-.459-6.24-1.218.574-1.718 2.51-1.718 2.51-2.306-1.385-1.774-3.037-1.774-3.037.145-.346.476-1.299 2.25-.952 3.436-11.04 14.751-5.288 14.751-5.288-.177-.346-.766-2.313-.766-2.313-7.347-1.039-9.831-6.122-9.831-6.122 6.815-2.022 10.96 3.47 10.96 3.47-1.895-4.509-6.452-2.714-7.637-10.11 7.911 1.282 9.057 7.333 9.218 8.639.113-.252.742-.59 3.339-.441 4.024.228 7.226 4.218 7.226 4.218 0 8.088-10.13 6.137-10.13 12.25 0 1.433 1.597 1.346 2.13 2.039.435.566.25 1.196.161 1.4h.96c2.274 0 4.436-1.023 5.774-2.817A17.53 17.53 0 0 0 36.6 17.578z"/></g><defs><clipPath id="a"><path fill="#fff" d="M0 .432h206v31.183H0z"/></clipPath></defs></svg>