<svg xmlns="http://www.w3.org/2000/svg" width="206" height="33" fill="none" viewBox="0 0 206 33"><g clip-path="url(#a)"><path fill="#171717" d="M51.658 13.831a8.57 8.57 0 0 1 3.338-3.379c1.428-.807 3.05-1.21 4.856-1.21 2.218 0 4.113.589 5.694 1.758s2.629 2.767 3.161 4.791h-5c-.371-.782-.904-1.371-1.58-1.782-.687-.412-1.46-.613-2.332-.613-1.403 0-2.532.484-3.403 1.46-.871.975-1.307 2.282-1.307 3.911q0 2.447 1.307 3.912c.87.976 2 1.46 3.403 1.46.871 0 1.645-.202 2.331-.613.686-.412 1.21-1 1.58-1.783h5.001c-.532 2.024-1.589 3.613-3.161 4.775-1.581 1.161-3.476 1.742-5.694 1.742q-2.712 0-4.855-1.21a8.6 8.6 0 0 1-3.34-3.363c-.798-1.436-1.193-3.073-1.193-4.92s.395-3.492 1.194-4.936m22.146 13.582a6.85 6.85 0 0 1-2.742-2.661c-.661-1.154-1-2.5-1-4.041 0-1.54.339-2.871 1.008-4.033a6.9 6.9 0 0 1 2.767-2.67c1.169-.62 2.484-.927 3.935-.927s2.767.307 3.936.928a6.9 6.9 0 0 1 2.766 2.67c.678 1.16 1.009 2.508 1.009 4.032q.001 2.288-1.025 4.033a6.94 6.94 0 0 1-2.79 2.67c-1.178.62-2.492.927-3.952.927s-2.758-.307-3.92-.928zm6.146-3.96c.613-.637.92-1.548.92-2.742s-.3-2.097-.888-2.742c-.597-.637-1.323-.96-2.194-.96-.87 0-1.62.315-2.21.944q-.88.945-.879 2.75c0 1.202.29 2.105.863 2.742s1.299.96 2.17.96 1.613-.323 2.218-.96zm7.388-6.791c.572-1.153 1.363-2.04 2.355-2.661q1.486-.93 3.322-.928 1.462-.002 2.67.613c.806.411 1.444.96 1.903 1.645V8.444h4.549v19.679h-4.549v-2.13q-.639 1.063-1.822 1.702c-.79.428-1.71.637-2.75.637-1.227 0-2.331-.314-3.323-.943q-1.487-.945-2.355-2.686c-.573-1.161-.863-2.5-.863-4.032s.29-2.864.863-4.017zm9.307 1.355c-.63-.653-1.395-.984-2.299-.984q-1.355 0-2.298.968c-.63.645-.944 1.54-.944 2.67q0 1.696.944 2.701c.629.662 1.395 1 2.298 1q1.355-.002 2.299-.984.943-.98.943-2.685t-.943-2.686m22.171 3.783h-10.291c.072.919.371 1.629.887 2.113.524.484 1.169.734 1.928.734 1.137 0 1.927-.476 2.371-1.436h4.839a6.54 6.54 0 0 1-1.347 2.63c-.645.782-1.46 1.394-2.436 1.838s-2.064.661-3.274.661c-1.452 0-2.75-.306-3.88-.927a6.6 6.6 0 0 1-2.661-2.662c-.637-1.153-.96-2.5-.96-4.04q0-2.31.944-4.04a6.5 6.5 0 0 1 2.645-2.662c1.137-.621 2.436-.928 3.912-.928s2.71.299 3.831.904a6.5 6.5 0 0 1 2.621 2.58c.629 1.113.944 2.42.944 3.912q.001.641-.081 1.33zm-4.573-2.525q0-1.173-.798-1.863c-.533-.46-1.194-.693-1.993-.693-.798 0-1.403.217-1.927.66q-.786.666-.968 1.888h5.694zm16.3 8.855-3.88-7.048h-1.088v7.049h-4.549V9.46h7.63c1.475 0 2.726.258 3.766.774q1.559.772 2.331 2.113.774 1.346.774 2.992.002 1.861-1.048 3.323c-.702.976-1.734 1.67-3.097 2.073l4.306 7.396h-5.145m-4.976-10.266h2.822c.831 0 1.46-.202 1.871-.613q.63-.615.63-1.726c0-.742-.21-1.266-.63-1.678-.419-.41-1.04-.612-1.871-.612h-2.822zm12.226-1.203c.573-1.153 1.363-2.04 2.355-2.661s2.105-.84 3.323-.84h9.122v14.962h-4.549v-2.097q-.664 1.038-1.847 1.677c-.79.428-1.71.637-2.75.637a6.03 6.03 0 0 1-3.299-.943c-.992-.63-1.774-1.524-2.355-2.686-.572-1.161-.863-2.5-.863-4.032s.291-2.863.863-4.017m9.307 1.355c-.629-.653-1.395-.984-2.298-.984q-1.356 0-2.299.968c-.629.645-.943 1.54-.943 2.67q0 1.696.943 2.701c.629.662 1.395 1 2.299 1q1.355-.002 2.298-.983.944-.98.944-2.686t-.944-2.686m14.647-4.307q1.196-.639 2.742-.637 1.837-.002 3.323.928c.992.62 1.774 1.508 2.355 2.661q.861 1.73.863 4.017-.002 2.288-.863 4.032c-.573 1.162-1.363 2.057-2.355 2.686q-1.486.943-3.323.943c-1.048 0-1.96-.21-2.742-.62-.782-.42-1.395-.968-1.839-1.662v2.073h-4.549V8.444h4.549v6.944c.428-.694 1.041-1.25 1.839-1.678m3.71 4.299c-.629-.645-1.403-.968-2.331-.968s-1.669.33-2.298.984q-.944.98-.944 2.686t.944 2.686c.629.653 1.395.984 2.298.984s1.678-.331 2.315-1c.637-.662.96-1.565.96-2.702s-.315-2.025-.944-2.67m13.815-4.299c.799-.427 1.71-.637 2.743-.637q1.836-.002 3.322.928 1.487.93 2.355 2.661.861 1.73.863 4.017-.002 2.288-.863 4.032c-.572 1.162-1.363 2.057-2.355 2.686q-1.486.944-3.322.944c-1.049 0-1.96-.21-2.743-.621-.782-.42-1.395-.968-1.838-1.662v2.073h-4.549V8.444h4.549v6.944c.427-.694 1.04-1.25 1.838-1.678m3.71 4.3c-.629-.646-1.403-.969-2.33-.969-.928 0-1.67.331-2.299.984q-.944.98-.944 2.686t.944 2.686c.629.653 1.395.984 2.299.984q1.356.002 2.314-1c.637-.662.96-1.565.96-2.702q0-1.704-.944-2.67m7.767-6.969a2.27 2.27 0 0 1-.758-1.741c0-.694.25-1.299.758-1.767s1.153-.701 1.952-.701 1.419.234 1.927.701q.76.702.758 1.767c0 .71-.25 1.274-.758 1.742s-1.145.701-1.927.701c-.783 0-1.452-.234-1.952-.701m4.218 2.25v14.84h-4.549V13.284h4.549zm11.034 10.977v3.855h-2.315c-1.645 0-2.936-.404-3.855-1.21q-1.38-1.207-1.379-3.952v-5.904h-1.807v-3.774h1.807V9.67H203v3.613h2.976v3.774H203v5.96c0 .444.105.767.323.96q.315.29 1.065.29h1.621z"/><path fill="#ff570a" d="M23.792 32.397c-1.758-.58-3.46-4.548-5.573-4.548 2.96 1.782 1.702 4.145 1.46 4.548H23.8z"/><path fill="#ff570a" d="M36.6 18.017C36.229 8.581 28.599.887 19.17.451 8.663-.025 0 8.347 0 18.743c0 3.968 1.258 7.638 3.403 10.63a7.21 7.21 0 0 0 5.25 2.992c-3.072-3.484-.459-6.396-.459-6.396-1.218.589-1.718 2.573-1.718 2.573-2.306-1.42-1.774-3.113-1.774-3.113.145-.355.476-1.33 2.25-.976 3.436-11.315 14.751-5.42 14.751-5.42-.177-.355-.766-2.371-.766-2.371-7.347-1.065-9.831-6.275-9.831-6.275 6.815-2.072 10.96 3.557 10.96 3.557-1.895-4.621-6.452-2.782-7.637-10.364 7.911 1.315 9.057 7.517 9.218 8.856.113-.258.742-.605 3.339-.452 4.024.234 7.226 4.323 7.226 4.323 0 8.291-10.13 6.291-10.13 12.558 0 1.468 1.597 1.379 2.13 2.089.435.58.25 1.225.161 1.435h.96c2.274 0 4.436-1.048 5.774-2.887A18.27 18.27 0 0 0 36.6 18.009z"/></g><defs><clipPath id="a"><path fill="#fff" d="M0 .435h206v31.962H0z"/></clipPath></defs></svg>