<svg xmlns="http://www.w3.org/2000/svg" width="160" height="44" fill="none" viewBox="0 0 160 44"><g clip-path="url(#a)"><g clip-path="url(#b)"><path fill="#1f1633" d="m137.239 41.02-4.441-5.732h-1.106v7.685h1.122v-5.89l4.566 5.89h.981v-7.685h-1.122zm-11.181-1.425h3.979v-.998h-3.981v-2.313h4.49v-.999h-5.634v7.688h5.691v-.999h-4.547zm-4.68-.975c-1.549-.372-1.982-.667-1.982-1.383 0-.643.568-1.08 1.416-1.08a3.63 3.63 0 0 1 2.127.768l.602-.852a4.24 4.24 0 0 0-2.708-.902c-1.521 0-2.583.902-2.583 2.187 0 1.383.902 1.861 2.545 2.261 1.462.337 1.909.65 1.909 1.35s-.601 1.134-1.531 1.134a3.7 3.7 0 0 1-2.495-.98l-.677.809a4.8 4.8 0 0 0 3.134 1.158c1.648 0 2.707-.887 2.707-2.259-.009-1.16-.695-1.783-2.464-2.21m37.329-3.333-2.313 3.61-2.297-3.61h-1.342l3.034 4.647v3.04h1.156V39.9L160 35.29zm-19.439 1.042h2.518v6.646h1.155v-6.647h2.517v-1.04h-6.186z"/><path fill="#1f1633" fill-rule="evenodd" d="M150.8 39.974c1.162-.322 1.805-1.134 1.805-2.295 0-1.476-1.081-2.406-2.822-2.406h-3.417v7.696h1.144v-2.76h1.94l1.949 2.767h1.335l-2.105-2.954zm-3.293-.752v-2.917h2.156c1.125 0 1.768.532 1.768 1.456s-.688 1.461-1.756 1.461zm-46.255 3.728q-.121 0-.186-.066a.28.28 0 0 1-.066-.186V35.54q0-.12.066-.186.065-.077.186-.077h3.007q.823 0 1.338.274.526.263.768.724.252.46.253 1.03 0 .45-.154.778a1.6 1.6 0 0 1-.362.526 2 2 0 0 1-.428.307q.429.209.757.68.34.471.34 1.14 0 .602-.274 1.107a2.04 2.04 0 0 1-.823.81q-.538.297-1.338.297zm.824-.888h2.117q.713 0 1.097-.384a1.28 1.28 0 0 0 .384-.942q0-.581-.384-.954-.384-.384-1.097-.384h-2.117zm0-3.54h2.018q.702 0 1.064-.318.363-.33.363-.888 0-.56-.363-.855-.362-.296-1.064-.296h-2.018z" clip-rule="evenodd"/><path fill="#1f1633" d="M110.221 42.884a.28.28 0 0 0 .187.066h.571q.121 0 .186-.066a.25.25 0 0 0 .077-.186V40.11l2.634-4.472a.2.2 0 0 0 .031-.066.224.224 0 0 0-.218-.296h-.559a.3.3 0 0 0-.177.055.4.4 0 0 0-.12.131l-2.14 3.552-2.14-3.552a.24.24 0 0 0-.109-.131.3.3 0 0 0-.175-.055h-.571a.2.2 0 0 0-.153.066.2.2 0 0 0-.066.153q0 .044.01.077l.011.032.012.034 2.643 4.472v2.587a.28.28 0 0 0 .066.186"/><path fill="#f01f7a" d="M51.082 8.706c2.297 0 4.134.763 5.666 2.34l.102.102 2.041-1.984-.05-.102c-1.838-2.036-4.645-3.155-7.86-3.155-6.33 0-10.974 4.376-10.974 10.432S44.6 26.772 50.929 26.772c3.215 0 6.023-1.12 7.911-3.206l.051-.102-2.041-1.985-.102.102c-1.532 1.578-3.42 2.392-5.666 2.392-4.593 0-7.91-3.206-7.91-7.634 0-4.427 3.368-7.633 7.91-7.633m16.537 15.42c-3.011 0-5.104-2.189-5.104-5.242 0-3.104 2.093-5.242 5.104-5.242s5.104 2.138 5.104 5.242-2.093 5.242-5.104 5.242m0-13.13c-4.747 0-8.166 3.308-8.166 7.888s3.42 7.888 8.166 7.888 8.166-3.308 8.166-7.888-3.47-7.888-8.166-7.888m17.353 13.13c-3.011 0-5.155-2.189-5.155-5.293s2.093-5.293 5.155-5.293c3.011 0 5.104 2.189 5.104 5.293s-2.093 5.293-5.104 5.293m5.104-10.993c-1.276-1.476-3.113-2.239-5.308-2.239-4.696 0-7.962 3.257-7.962 7.939s3.266 7.94 7.962 7.94c2.245 0 4.185-.866 5.41-2.393v2.189h2.91V4.889h-3.063zm12.811.407c2.501 0 4.389 1.68 4.746 4.123h-9.442c.306-2.443 2.144-4.123 4.696-4.123m0-2.544c-4.492 0-7.707 3.308-7.707 7.888 0 4.631 3.368 7.888 8.268 7.888 2.552 0 4.645-.865 6.074-2.494l.051-.05-1.684-1.934-.103.101c-1.071 1.17-2.5 1.782-4.287 1.782-2.858 0-4.95-1.629-5.359-4.224h12.25v-.102c.051-.255.051-.61.051-.865.051-4.733-3.114-7.99-7.554-7.99m21.538 10.992c-.919 1.374-2.348 2.138-4.134 2.138-3.113 0-5.206-2.138-5.206-5.242s2.144-5.242 5.206-5.242c1.786 0 3.215.713 4.134 2.138l.051.101 2.348-1.476-.051-.101c-1.225-2.087-3.573-3.308-6.431-3.308-4.798 0-8.319 3.308-8.319 7.888s3.521 7.888 8.319 7.888c2.858 0 5.206-1.221 6.431-3.359l.051-.102-2.348-1.424zm11.586 2.138c-3.011 0-5.104-2.189-5.104-5.242 0-3.104 2.093-5.242 5.104-5.242s5.104 2.138 5.104 5.242-2.093 5.242-5.104 5.242m0-13.13c-4.747 0-8.166 3.308-8.166 7.888s3.419 7.888 8.166 7.888 8.166-3.308 8.166-7.888-3.47-7.888-8.166-7.888m21.028 0-5.206 11.908-5.104-11.908h-3.113l6.686 15.216.051.051h2.96l6.686-15.267zM16.235.91C7.288.91 0 8.105 0 16.883v.072l2.742 1.582h.072c1.732-1.15 3.824-1.582 5.917-1.223 1.443.288 2.814.936 3.896 1.943l.506.432.288-.576c.289-.576.578-1.08.866-1.583.144-.216.289-.36.433-.575l.289-.36-.361-.288a11.8 11.8 0 0 0-5.268-2.446c-1.876-.36-3.752-.288-5.484.288 1.3-5.684 6.35-9.713 12.34-9.713 3.39 0 6.566 1.295 8.947 3.669a11.8 11.8 0 0 1 3.391 6.044c-1.082-.36-2.237-.504-3.391-.504h-.217c-.433 0-.866.072-1.37.072h-.073c-.144 0-.36.072-.505.072-.288.072-.505.072-.794.144l-.216.072-.65.215h-.072c-.505.144-.938.36-1.443.576-.216.072-.433.216-.65.36h-.071c-1.083.647-2.093 1.439-2.887 2.446l-.072.144c-.216.288-.36.504-.505.648-.144.143-.216.36-.36.575l-.073.144c-.144.216-.216.432-.288.576v.072a8.6 8.6 0 0 0-.578 1.439v.072a12.2 12.2 0 0 0-.577 3.669v1.367c0 .144.072.36.072.503.361 1.727 1.155 3.382 2.381 4.893l.073.072.072-.072c.505-.575 1.66-2.374 1.804-3.454a7.4 7.4 0 0 1-.866-3.453c0-4.03 3.175-7.41 7.288-7.627h.288c1.66-.072 3.32.432 4.69 1.367h.073l2.742-1.582v-.072c0-4.245-1.66-8.274-4.763-11.296C24.606 2.565 20.565.91 16.236.91"/></g></g><defs><clipPath id="a"><path fill="#fff" d="M0 0h160v44H0z"/></clipPath><clipPath id="b"><path fill="#fff" d="M0 0h160v44H0z"/></clipPath></defs></svg>