<svg xmlns="http://www.w3.org/2000/svg" width="196" height="80" fill="none" viewBox="0 0 196 80"><g clip-path="url(#a)"><path fill="#19b394" d="M0 0v60.66h173.12l21.98 19.23V0zm46.67 37.26q-.69 1.29-1.86 2.1c-.78.53-1.67.92-2.69 1.17-1.01.24-2.08.37-3.18.37-1.71 0-3.39-.26-5.06-.77-1.66-.51-3.16-1.24-4.48-2.18l1.95-3.81c.19.19.54.44 1.04.75s1.09.62 1.78.93c.68.31 1.44.57 2.27.78s1.68.32 2.56.32c2.43 0 3.65-.78 3.65-2.34 0-.49-.14-.91-.42-1.25s-.67-.64-1.18-.9-1.13-.49-1.86-.7-1.54-.45-2.43-.7c-1.09-.3-2.03-.62-2.83-.98-.8-.35-1.47-.77-2-1.25a4.7 4.7 0 0 1-1.2-1.66c-.27-.63-.4-1.38-.4-2.26 0-1.15.21-2.18.64-3.07a6.3 6.3 0 0 1 1.78-2.24c.76-.6 1.64-1.05 2.64-1.36s2.08-.46 3.23-.46c1.6 0 3.07.25 4.42.75 1.34.5 2.52 1.09 3.52 1.78l-1.95 3.58c-.15-.15-.42-.35-.82-.61q-.6-.39-1.44-.75c-.57-.25-1.18-.45-1.84-.62a8 8 0 0 0-2.02-.26c-1.22 0-2.12.22-2.72.67q-.9.675-.9 1.89c0 .47.11.86.34 1.17s.55.58.98.82.97.45 1.62.64 1.4.4 2.26.61c1.11.3 2.12.62 3.02.96.91.34 1.67.77 2.3 1.28s1.12 1.13 1.46 1.84q.51 1.08.51 2.64 0 1.83-.69 3.12m20.14 3.38a10 10 0 0 1-1.07.16q-.435.03-.78.03c-.77 0-1.39-.18-1.87-.53s-.76-.84-.85-1.46l-.1-1.34c-.75 1.15-1.71 2.02-2.88 2.59-1.17.58-2.46.86-3.87.86-1.73 0-3.04-.55-3.94-1.66s-1.34-2.75-1.34-4.93v-10.5h4.29v9.57c0 2.58.93 3.87 2.78 3.87.83 0 1.64-.25 2.42-.75s1.41-1.26 1.9-2.29v-10.4h4.29V35.7q0 .675.24.96c.16.19.42.3.78.32zm13.22-13.06c-1.3.02-2.46.27-3.49.75-1.02.48-1.76 1.2-2.21 2.16v10.14h-4.29V23.86h3.94v3.58c.3-.58.65-1.09 1.06-1.55s.84-.86 1.31-1.2.94-.6 1.42-.78.94-.27 1.39-.27h.53c.12 0 .23.01.34.03zm11.55 13.06h-4.64l-6.18-16.77h4.42l4.26 13.28 4.29-13.28h4.03zm24.37-7.65c-.01.26-.04.47-.08.64h-12.96c.06.66.22 1.25.48 1.76s.59.95.99 1.31.86.64 1.38.83c.51.19 1.04.29 1.6.29.85 0 1.66-.21 2.42-.62.76-.42 1.27-.96 1.55-1.65l3.68 1.02c-.62 1.28-1.61 2.33-2.96 3.15-1.36.82-2.97 1.23-4.85 1.23-1.34 0-2.56-.23-3.65-.69s-2.02-1.08-2.78-1.87a8.4 8.4 0 0 1-1.78-2.75 8.7 8.7 0 0 1-.62-3.3c0-1.16.2-2.32.61-3.38s.99-1.98 1.76-2.78 1.7-1.43 2.8-1.9 2.33-.7 3.7-.7 2.59.24 3.66.7c1.08.47 1.99 1.1 2.75 1.89s1.33 1.71 1.73 2.75c.39 1.05.59 2.13.59 3.26 0 .28 0 .54-.02.8zm8.34 13.86c-.98.75-2.2 1.12-3.65 1.12-.34 0-.69-.03-1.04-.08a6 6 0 0 1-1.1-.27v-3.71c.36.11.71.19 1.06.24.34.05.63.08.86.08.28 0 .53-.05.77-.16.23-.11.45-.29.64-.56s.38-.63.58-1.1c.19-.47.39-1.06.61-1.76l-6.62-16.77h4.42l4.54 13.06 4.03-13.06h4.03l-7.04 20.1a6.1 6.1 0 0 1-2.08 2.88zm20.64-17.38c0 1.73-.09 3.3-.27 4.72s-.56 2.63-1.15 3.63-1.43 1.78-2.54 2.34-2.6.83-4.48.83-3.56-.47-4.93-1.41l.99-3.58c.3.21.8.45 1.5.7.7.26 1.51.38 2.43.38s1.61-.15 2.14-.46.94-.78 1.21-1.42.46-1.43.54-2.38.13-2.06.13-3.34V17.93h4.42v11.55zm20.08 7.79q-.69 1.29-1.86 2.1c-.78.53-1.68.92-2.69 1.17-1.01.24-2.08.37-3.18.37-1.71 0-3.39-.26-5.06-.77-1.66-.51-3.16-1.24-4.48-2.18l1.95-3.81c.19.19.54.44 1.04.75s1.09.62 1.78.93c.68.31 1.44.57 2.27.78s1.68.32 2.56.32c2.43 0 3.65-.78 3.65-2.34 0-.49-.14-.91-.42-1.25s-.67-.64-1.18-.9-1.13-.49-1.86-.7-1.54-.45-2.43-.7c-1.09-.3-2.03-.62-2.83-.98-.8-.35-1.47-.77-2-1.25a4.7 4.7 0 0 1-1.2-1.66c-.27-.63-.4-1.38-.4-2.26 0-1.15.21-2.18.64-3.07.43-.9 1.02-1.64 1.78-2.24s1.64-1.05 2.64-1.36 2.08-.46 3.23-.46c1.6 0 3.07.25 4.42.75 1.34.5 2.52 1.09 3.52 1.78l-1.95 3.58c-.15-.15-.42-.35-.82-.61q-.6-.39-1.44-.75c-.57-.25-1.18-.45-1.84-.62a8 8 0 0 0-2.02-.26c-1.22 0-2.12.22-2.72.67q-.9.675-.9 1.89c0 .47.11.86.34 1.17.22.31.55.58.98.82.43.23.96.45 1.62.64.65.19 1.4.4 2.26.61 1.11.3 2.12.62 3.02.96.91.34 1.67.77 2.3 1.28s1.11 1.13 1.46 1.84q.51 1.08.51 2.64 0 1.83-.69 3.12m-54.85-9.44c.82.76 1.29 1.77 1.39 3.02h-8.7c.04-.62.19-1.18.43-1.7.25-.51.56-.95.94-1.31a4.2 4.2 0 0 1 2.95-1.15c1.17 0 2.17.38 2.99 1.14"/><path fill="#fff" d="m125.36 36.94 4.03-13.06h4.03l-7.04 20.1a6.1 6.1 0 0 1-2.08 2.88l-.01-.01c-.98.75-2.2 1.12-3.65 1.12-.34 0-.69-.03-1.04-.08s-.72-.14-1.1-.27v-3.71c.36.11.71.19 1.06.24.34.05.63.08.86.08.28 0 .53-.05.769-.16.23-.11.451-.29.641-.56s.38-.63.58-1.1c.19-.47.39-1.06.61-1.76l-6.62-16.77h4.42zm19.56-7.46.01-.01c0 1.73-.09 3.3-.27 4.72s-.56 2.63-1.15 3.63-1.43 1.78-2.54 2.34-2.6.83-4.48.83-3.56-.47-4.93-1.41l.99-3.58c.3.21.8.45 1.5.7.7.26 1.51.38 2.429.38.92 0 1.611-.15 2.141-.46s.94-.78 1.21-1.42.46-1.43.54-2.38.13-2.06.13-3.34V17.93h4.42zM54.4 33.43c0 2.58.93 3.87 2.78 3.87.83 0 1.64-.25 2.42-.75s1.41-1.26 1.9-2.29v-10.4h4.29V35.7q0 .675.24.96c.16.19.42.3.78.32v3.66a10 10 0 0 1-1.07.16q-.435.03-.78.03c-.77 0-1.39-.18-1.87-.53s-.76-.84-.85-1.46l-.1-1.34c-.75 1.15-1.71 2.02-2.88 2.59-1.17.58-2.46.86-3.87.86-1.73 0-3.04-.55-3.94-1.66s-1.34-2.75-1.34-4.93v-10.5h4.29zm52.84-9.85c1.37 0 2.59.24 3.66.7a8.4 8.4 0 0 1 2.75 1.89c.76.79 1.33 1.71 1.73 2.75.39 1.05.59 2.13.59 3.26 0 .28 0 .54-.02.8v.01c-.01.26-.04.47-.08.64h-12.96c.06.66.22 1.25.48 1.76s.59.95.99 1.31.86.64 1.38.83c.51.19 1.04.29 1.6.29.85 0 1.66-.21 2.42-.62.76-.42 1.27-.96 1.55-1.65l3.68 1.02c-.62 1.28-1.61 2.33-2.96 3.15-1.36.82-2.97 1.23-4.85 1.23-1.34 0-2.56-.23-3.65-.69s-2.021-1.08-2.78-1.87a8.4 8.4 0 0 1-1.78-2.75 8.7 8.7 0 0 1-.62-3.3c0-1.16.2-2.32.61-3.38a8.2 8.2 0 0 1 1.76-2.78c.77-.8 1.7-1.43 2.8-1.9s2.33-.7 3.7-.7m-68.62-5.83c1.6 0 3.07.25 4.42.75 1.34.5 2.52 1.09 3.52 1.78l-1.95 3.58c-.15-.15-.42-.35-.82-.61q-.6-.39-1.44-.75c-.57-.25-1.18-.45-1.84-.62s-1.33-.26-2.02-.26c-1.22 0-2.12.22-2.72.67q-.9.675-.9 1.89c0 .47.11.86.34 1.17s.55.58.98.82.97.45 1.62.64 1.4.4 2.26.61c1.11.3 2.12.62 3.02.96.91.34 1.67.77 2.3 1.28s1.12 1.13 1.46 1.84q.51 1.08.51 2.64 0 1.83-.69 3.12t-1.86 2.1c-.78.53-1.67.92-2.69 1.17-1.01.24-2.08.37-3.18.37-1.71 0-3.39-.26-5.06-.77-1.66-.51-3.16-1.24-4.48-2.18l1.95-3.81c.19.19.54.44 1.04.75s1.09.62 1.78.93c.68.31 1.44.57 2.27.78s1.68.32 2.56.32c2.43 0 3.65-.78 3.65-2.34 0-.49-.14-.91-.42-1.25s-.67-.64-1.18-.9-1.13-.49-1.86-.7-1.54-.45-2.43-.7c-1.09-.3-2.03-.62-2.83-.98-.8-.35-1.47-.77-2-1.25a4.7 4.7 0 0 1-1.2-1.66c-.27-.63-.4-1.38-.4-2.26 0-1.15.21-2.18.64-3.07a6.3 6.3 0 0 1 1.78-2.24c.76-.6 1.64-1.05 2.64-1.36s2.08-.46 3.23-.46m118.34 0c1.6 0 3.07.25 4.42.75 1.34.5 2.52 1.09 3.52 1.78l-1.95 3.58c-.15-.15-.42-.35-.82-.61q-.6-.39-1.441-.75a12 12 0 0 0-1.839-.62 8 8 0 0 0-2.02-.26c-1.22 0-2.12.22-2.72.67q-.9.675-.9 1.89c0 .47.11.86.34 1.17.22.31.55.58.98.82.43.23.96.45 1.619.64.65.19 1.401.4 2.261.61 1.11.3 2.12.62 3.02.96.91.34 1.67.77 2.299 1.28.63.51 1.11 1.13 1.46 1.84q.51 1.08.511 2.64 0 1.83-.69 3.12t-1.86 2.1c-.78.53-1.68.92-2.69 1.17-1.01.24-2.08.37-3.18.37-1.71 0-3.39-.26-5.06-.77-1.66-.51-3.16-1.24-4.48-2.18l1.949-3.81c.19.19.541.44 1.04.75q.748.465 1.781.93c.68.31 1.44.57 2.27.78s1.68.32 2.56.32c2.43 0 3.65-.78 3.65-2.34 0-.49-.14-.91-.42-1.25s-.67-.64-1.18-.9-1.13-.49-1.86-.7-1.54-.45-2.43-.7c-1.09-.3-2.031-.62-2.83-.98-.8-.35-1.471-.77-2-1.25a4.7 4.7 0 0 1-1.2-1.66c-.27-.63-.4-1.38-.4-2.26 0-1.15.21-2.18.64-3.07.43-.9 1.02-1.64 1.78-2.24s1.64-1.05 2.639-1.36c1-.31 2.081-.46 3.231-.46m-67.52 19.4 4.29-13.28h4.03l-6.18 16.77h-4.64l-6.18-16.77h4.42zm-9.75-13.51c.12 0 .23.01.34.03v3.91c-1.3.02-2.46.27-3.49.75-1.02.48-1.76 1.2-2.21 2.16v10.14h-4.29V23.86h3.94v3.58c.3-.58.65-1.09 1.06-1.55s.84-.86 1.31-1.2.94-.6 1.42-.78.94-.27 1.39-.27zm27.48 3.04q-.652 0-1.237.169a4 4 0 0 0-.923.393 4 4 0 0 0-.79.588c-.38.36-.69.8-.94 1.31-.24.52-.39 1.08-.43 1.7h8.7c-.1-1.25-.57-2.26-1.39-3.02s-1.82-1.14-2.99-1.14"/></g><defs><clipPath id="a"><path fill="#fff" d="M0 0h196v80H0z"/></clipPath></defs></svg>